<?xml version="1.0" standalone="no"?>
<!DOCTYPE svg PUBLIC "-//W3C//DTD SVG 20010904//EN"
 "http://www.w3.org/TR/2001/REC-SVG-20010904/DTD/svg10.dtd">
<svg version="1.0" xmlns="http://www.w3.org/2000/svg"
 width="1536.000000pt" height="1024.000000pt" viewBox="0 0 1536.000000 1024.000000"
 preserveAspectRatio="xMidYMid meet">

<g transform="translate(0.000000,1024.000000) scale(0.100000,-0.100000)"
fill="#000000" stroke="none">
<path d="M0 5120 l0 -5120 7680 0 7680 0 0 5120 0 5120 -7680 0 -7680 0 0
-5120z m5930 2321 l0 -39 -142 -4 c-168 -4 -199 -15 -235 -88 -20 -38 -23 -60
-23 -162 l0 -118 -46 0 -46 0 4 143 c4 155 15 192 75 249 52 50 84 57 256 58
l157 0 0 -39z m3370 -1 l0 -40 -1625 0 -1625 0 0 40 0 40 1625 0 1625 0 0 -40z
m489 14 c101 -51 135 -132 129 -314 l-3 -105 -42 -3 -43 -3 0 118 c0 103 -3
125 -22 163 -38 73 -68 84 -240 88 l-148 4 0 39 0 39 158 0 c151 0 161 -1 211
-26z m-1924 -393 c300 -62 547 -303 626 -610 14 -55 20 -114 21 -211 3 -214
-33 -330 -183 -601 -50 -90 -117 -211 -149 -269 -268 -486 -488 -874 -496
-877 -5 -2 -76 115 -156 259 -81 145 -204 367 -275 493 -383 684 -386 691
-404 933 -14 202 27 367 132 527 188 289 535 428 884 356z m-2335 -1792 l0
-1640 -42 3 -43 3 -3 1638 -2 1637 45 0 45 0 0 -1641z m4384 1625 c3 -9 6
-747 6 -1640 l0 -1624 -45 0 -45 0 0 1640 0 1640 39 0 c26 0 41 -5 45 -16z
m-2500 -2418 c42 -80 76 -147 76 -150 0 -3 -189 -6 -420 -6 -329 0 -420 3
-420 13 0 6 18 72 40 145 22 72 40 134 40 137 0 3 137 5 304 5 l304 0 76 -144z
m1277 -1 c22 -77 39 -143 39 -147 0 -5 -189 -8 -420 -8 -292 0 -420 3 -420 11
0 6 32 69 70 140 39 72 70 135 70 140 0 6 121 8 311 7 l312 -3 38 -140z m120
-460 l37 -145 -1159 0 c-873 0 -1159 3 -1159 12 0 9 60 223 75 266 3 9 230 12
1087 12 l1083 0 36 -145z m133 -336 c3 -17 6 -38 6 -45 0 -12 -198 -14 -1260
-14 l-1260 0 0 45 0 45 1254 0 1254 0 6 -31z m-3414 -267 c0 -121 9 -164 42
-200 44 -47 69 -53 218 -53 l140 0 0 -44 0 -45 -138 0 c-166 0 -222 14 -277
67 -56 55 -68 91 -73 230 -2 67 -2 129 1 138 4 10 20 15 47 15 l40 0 0 -108z
m4388 -39 c-5 -146 -24 -202 -84 -248 -60 -46 -104 -55 -265 -55 l-149 0 0 45
0 45 145 0 c230 0 257 24 263 227 l4 122 37 3 c20 2 40 0 45 -4 4 -3 6 -64 4
-135z m-618 -258 l0 -45 -1625 0 -1625 0 0 45 0 45 1625 0 1625 0 0 -45z"/>
<path d="M7582 6685 c-167 -36 -294 -151 -344 -309 -16 -48 -19 -81 -15 -157
3 -86 8 -104 41 -172 62 -125 177 -218 301 -245 96 -21 124 -23 192 -12 248
38 427 277 386 515 -34 199 -192 358 -383 385 -82 12 -101 12 -178 -5z m185
-292 c41 -19 81 -76 89 -124 14 -84 -44 -177 -122 -198 -142 -37 -265 102
-209 236 20 48 42 72 80 89 42 18 120 17 162 -3z"/>
</g>
</svg>
